<svg xmlns="http://www.w3.org/2000/svg" viewBox="0 0 512 512">
  <defs>
    <linearGradient id="bg" x1="66" x2="446" y1="46" y2="466" gradientUnits="userSpaceOnUse">
      <stop offset="0" stop-color="#07111f"/>
      <stop offset=".52" stop-color="#0d3150"/>
      <stop offset="1" stop-color="#0f766e"/>
    </linearGradient>
    <radialGradient id="radar" cx="242" cy="216" r="290" gradientUnits="userSpaceOnUse">
      <stop offset="0" stop-color="#67e8f9" stop-opacity=".92"/>
      <stop offset=".38" stop-color="#38bdf8" stop-opacity=".42"/>
      <stop offset="1" stop-color="#38bdf8" stop-opacity="0"/>
    </radialGradient>
    <linearGradient id="sweep" x1="146" x2="426" y1="126" y2="348" gradientUnits="userSpaceOnUse">
      <stop offset="0" stop-color="#a7f3d0" stop-opacity=".92"/>
      <stop offset="1" stop-color="#22d3ee" stop-opacity=".12"/>
    </linearGradient>
    <filter id="soft-shadow" x="-25%" y="-25%" width="150%" height="150%">
      <feDropShadow dx="0" dy="24" stdDeviation="20" flood-color="#020617" flood-opacity=".36"/>
    </filter>
  </defs>
  <rect width="512" height="512" fill="url(#bg)"/>
  <rect x="18" y="18" width="476" height="476" rx="104" fill="none" stroke="#bae6fd" stroke-opacity=".16" stroke-width="4"/>
  <path fill="none" stroke="#7dd3fc" stroke-opacity=".12" stroke-width="4" d="M70 156h372M70 256h372M70 356h372M156 70v372M256 70v372M356 70v372"/>
  <circle cx="256" cy="238" r="174" fill="none" stroke="#bae6fd" stroke-opacity=".17" stroke-width="6"/>
  <circle cx="256" cy="238" r="113" fill="none" stroke="#bae6fd" stroke-opacity=".24" stroke-width="5"/>
  <path fill="url(#radar)" d="M256 238 395 126a181 181 0 0 1 42 139z"/>
  <path fill="url(#sweep)" d="M256 238 412 150a180 180 0 0 1 18 132z"/>
  <g filter="url(#soft-shadow)" transform="translate(256 256) scale(.86) translate(-256 -256)">
    <path fill="#f8fdff" d="M161 323c-42 0-76-33-76-74 0-34 24-64 57-72 21-51 70-84 126-84 69 0 127 51 136 118 42 8 73 45 73 88 0 49-40 89-89 89H161z"/>
    <path fill="#0f172a" fill-opacity=".18" d="M161 323c-42 0-76-33-76-74 0-8 1-15 3-22 11 32 41 55 76 55h226c36 0 68-22 82-53 4 10 5 20 5 31 0 49-40 89-89 89H161z"/>
    <path fill="none" stroke="#0891b2" stroke-linecap="round" stroke-linejoin="round" stroke-width="28" d="M174 330c31 30 68 45 112 45s78-15 106-45"/>
    <path fill="none" stroke="#67e8f9" stroke-linecap="round" stroke-linejoin="round" stroke-width="16" d="M185 328c27 22 60 33 100 33 39 0 70-11 95-33"/>
    <path fill="#0284c7" d="M219 204c14-32 45-52 81-52 43 0 79 31 86 73l-33 4c-5-25-27-43-53-43-23 0-43 13-52 34z"/>
  </g>
</svg>
