<svg xmlns="http://www.w3.org/2000/svg" viewBox="0 0 512 512">
  <path fill="#000" d="M67 512h378c37 0 67-30 67-67V67c0-37-30-67-67-67H67C30 0 0 30 0 67v378c0 37 30 67 67 67zm94-189c-42 0-76-33-76-74 0-34 24-64 57-72 21-51 70-84 126-84 69 0 127 51 136 118 42 8 73 45 73 88 0 49-40 89-89 89H161zm43 7c28 25 56 38 88 38 31 0 57-13 82-38 11-11 29 7 18 18-30 31-64 47-100 47-38 0-73-16-105-47-11-10 6-29 17-18zm15-126c14-32 45-52 81-52 43 0 79 31 86 73l-33 4c-5-25-27-43-53-43-23 0-43 13-52 34z"/>
</svg>
