<svg xmlns="http://www.w3.org/2000/svg">
  <symbol id="precipitation-forecast" viewBox="0 0 22.19 19.87">
    <path
      d="M6,14a1,1,0,0,1,0,2A5,5,0,0,1,6,6a6.51,6.51,0,0,1,12.5,2L19,8a4,4,0,0,1,0,8H18a1,1,0,1,1,0-2h1a2,2,0,0,0,0-4H17V9a5,5,0,0,0-9.94-.82A3.11,3.11,0,0,0,6,8a3,3,0,0,0,0,6m3.27,1.5c.13.2.26.42.38.64a6.32,6.32,0,0,1,1,2.49,1.51,1.51,0,0,1-1.37,1.62,1.51,1.51,0,0,1-1.36-1.62,6.31,6.31,0,0,1,1-2.49l.38-.64m0-2.53-.34.45a19,19,0,0,0-1.16,1.81,7.25,7.25,0,0,0-1.22,3.4A3,3,0,0,0,9.27,21.9,3,3,0,0,0,12,18.66a7.25,7.25,0,0,0-1.22-3.4,20.2,20.2,0,0,0-1.17-1.81"
      transform="translate(-1 -2.03)"/>
    <path class="a" d="M14.29,17.88v.81H16v.58H14.29v1.34H13.6V17.32h2.66v.56Z" transform="translate(-1 -2.03)"/>
    <path class="a" d="M19.42,17.88h-1v2.73H17.7V17.88h-1v-.56h2.76Z" transform="translate(-1 -2.03)"/>
    <path class="a"
          d="M20.58,20.61h-.69V17.32h1.64a1.6,1.6,0,0,1,.51.08,1.26,1.26,0,0,1,.39.23,1.06,1.06,0,0,1,.35.82,1,1,0,0,1-.21.65,1.09,1.09,0,0,1-.54.4l.9,1.11H22.1l-.42-.52c-.14-.17-.28-.35-.41-.53h-.69Zm0-1.61h1l.2,0a.59.59,0,0,0,.17-.1.62.62,0,0,0,.14-.18.6.6,0,0,0,.05-.24,1.11,1.11,0,0,0,0-.17.64.64,0,0,0-.08-.19.5.5,0,0,0-.17-.15.6.6,0,0,0-.29-.06h-1Z"
          transform="translate(-1 -2.03)"/>
  </symbol>

  <symbol id="precipitation-nowcast" viewBox="0 0 22 20.61">
    <path
      d="M8.4,11.45a1,1,0,0,1,.71,1.22L7.81,17.5a1,1,0,0,1-1.22.71A1,1,0,0,1,5.9,17l1.28-4.83a1,1,0,0,1,1.22-.71m9.4,0c.49.1.78.48.65.84l-1.19,3.33a1,1,0,0,1-1.12.48c-.49-.09-.78-.47-.63-.84l1.17-3.32a1,1,0,0,1,1.12-.49m-.53-2.7v-1a5,5,0,0,0-9.94-.81,3.11,3.11,0,0,0-1.06-.19,3,3,0,0,0-1.5,5.6h0a1,1,0,1,1-1,1.73h0a5,5,0,0,1,2.5-9.33,6.51,6.51,0,0,1,12.5,2l.5,0a4,4,0,0,1,4,4,4,4,0,0,1-2,3.46h0a1,1,0,0,1-1.37-.37,1,1,0,0,1,.37-1.37h0a2,2,0,0,0-1-3.73Zm-4.1.43a1,1,0,0,1,.71,1.22l-1.3,4.83a1,1,0,0,1-1.22.71,1,1,0,0,1-.69-1.22L12,9.88a1,1,0,0,1,1.22-.71"
      transform="translate(-1.27 -0.74)"/>
    <path class="a" d="M12.84,21.17l-2.2-2v2H10V17.82h.07l2.2,2v-2h.64v3.35Z" transform="translate(-1.27 -0.74)"/>
    <path class="a"
          d="M15.21,21.23a1.56,1.56,0,0,1-.68-.14,1.74,1.74,0,0,1-1.06-1.6A1.8,1.8,0,0,1,14,18.26a1.9,1.9,0,0,1,.55-.37,1.72,1.72,0,0,1,.68-.14,1.67,1.67,0,0,1,.67.14,2,2,0,0,1,.56.37,1.82,1.82,0,0,1,.37.56,1.67,1.67,0,0,1,.14.67,1.72,1.72,0,0,1-.14.68,1.9,1.9,0,0,1-.37.55,1.76,1.76,0,0,1-.56.37A1.52,1.52,0,0,1,15.21,21.23Zm0-2.88a.91.91,0,0,0-.43.1,1.07,1.07,0,0,0-.35.25,1.11,1.11,0,0,0-.23.36,1.07,1.07,0,0,0-.09.43,1.12,1.12,0,0,0,.09.44,1.23,1.23,0,0,0,.23.36,1.07,1.07,0,0,0,.35.25,1,1,0,0,0,.43.1,1.08,1.08,0,0,0,.43-.1,1,1,0,0,0,.34-.25,1.26,1.26,0,0,0,.24-.36,1.11,1.11,0,0,0,.08-.44,1.06,1.06,0,0,0-.08-.43A1.13,1.13,0,0,0,16,18.7a1,1,0,0,0-.34-.25A.94.94,0,0,0,15.21,18.35Z"
          transform="translate(-1.27 -0.74)"/>
    <path class="a"
          d="M21.49,17.82l-1.25,3.35h-.06l-.91-2-.92,2h-.06l-1.23-3.35h.68l.66,1.84.85-1.84h0l.85,1.84.67-1.84Z"
          transform="translate(-1.27 -0.74)"/>
  </symbol>
</svg>
